<svg width="25" height="19" viewBox="0 0 25 19" fill="none" xmlns="http://www.w3.org/2000/svg">
<path d="M11.1172 10.7227C11.1172 13.2617 10.6836 15.1484 9.81641 16.3828C8.94922 17.6172 7.59375 18.2344 5.75 18.2344C3.92969 18.2344 2.58203 17.6328 1.70703 16.4297C0.832031 15.2188 0.378906 13.4141 0.347656 11.0156V8.12109C0.347656 5.61328 0.78125 3.75 1.64844 2.53125C2.51562 1.3125 3.875 0.703125 5.72656 0.703125C7.5625 0.703125 8.91406 1.29297 9.78125 2.47266C10.6484 3.64453 11.0938 5.45703 11.1172 7.91016V10.7227ZM8.94922 7.75781C8.94922 5.92188 8.69141 4.58594 8.17578 3.75C7.66016 2.90625 6.84375 2.48438 5.72656 2.48438C4.61719 2.48438 3.80859 2.90234 3.30078 3.73828C2.79297 4.57422 2.53125 5.85938 2.51562 7.59375V11.0625C2.51562 12.9062 2.78125 14.2695 3.3125 15.1523C3.85156 16.0273 4.66406 16.4648 5.75 16.4648C6.82031 16.4648 7.61328 16.0508 8.12891 15.2227C8.65234 14.3945 8.92578 13.0898 8.94922 11.3086V7.75781ZM17.0469 8.41406H18.6758C19.6992 8.39844 20.5039 8.12891 21.0898 7.60547C21.6758 7.08203 21.9688 6.375 21.9688 5.48438C21.9688 3.48437 20.9727 2.48438 18.9805 2.48438C18.043 2.48438 17.293 2.75391 16.7305 3.29297C16.1758 3.82422 15.8984 4.53125 15.8984 5.41406H13.7305C13.7305 4.0625 14.2227 2.94141 15.207 2.05078C16.1992 1.15234 17.457 0.703125 18.9805 0.703125C20.5898 0.703125 21.8516 1.12891 22.7656 1.98047C23.6797 2.83203 24.1367 4.01563 24.1367 5.53125C24.1367 6.27344 23.8945 6.99219 23.4102 7.6875C22.9336 8.38281 22.2812 8.90234 21.4531 9.24609C22.3906 9.54297 23.1133 10.0352 23.6211 10.7227C24.1367 11.4102 24.3945 12.25 24.3945 13.2422C24.3945 14.7734 23.8945 15.9883 22.8945 16.8867C21.8945 17.7852 20.5938 18.2344 18.9922 18.2344C17.3906 18.2344 16.0859 17.8008 15.0781 16.9336C14.0781 16.0664 13.5781 14.9219 13.5781 13.5H15.7578C15.7578 14.3984 16.0508 15.1172 16.6367 15.6562C17.2227 16.1953 18.0078 16.4648 18.9922 16.4648C20.0391 16.4648 20.8398 16.1914 21.3945 15.6445C21.9492 15.0977 22.2266 14.3125 22.2266 13.2891C22.2266 12.2969 21.9219 11.5352 21.3125 11.0039C20.7031 10.4727 19.8242 10.1992 18.6758 10.1836H17.0469V8.41406Z" fill="#118BAE"/>
</svg>
