<svg width="26" height="19" viewBox="0 0 26 19" fill="none" xmlns="http://www.w3.org/2000/svg">
<path d="M11.1172 10.7227C11.1172 13.2617 10.6836 15.1484 9.81641 16.3828C8.94922 17.6172 7.59375 18.2344 5.75 18.2344C3.92969 18.2344 2.58203 17.6328 1.70703 16.4297C0.832031 15.2188 0.378906 13.4141 0.347656 11.0156V8.12109C0.347656 5.61328 0.78125 3.75 1.64844 2.53125C2.51562 1.3125 3.875 0.703125 5.72656 0.703125C7.5625 0.703125 8.91406 1.29297 9.78125 2.47266C10.6484 3.64453 11.0938 5.45703 11.1172 7.91016V10.7227ZM8.94922 7.75781C8.94922 5.92188 8.69141 4.58594 8.17578 3.75C7.66016 2.90625 6.84375 2.48438 5.72656 2.48438C4.61719 2.48438 3.80859 2.90234 3.30078 3.73828C2.79297 4.57422 2.53125 5.85938 2.51562 7.59375V11.0625C2.51562 12.9062 2.78125 14.2695 3.3125 15.1523C3.85156 16.0273 4.66406 16.4648 5.75 16.4648C6.82031 16.4648 7.61328 16.0508 8.12891 15.2227C8.65234 14.3945 8.92578 13.0898 8.94922 11.3086V7.75781ZM23.0469 12.2695H25.4141V14.0391H23.0469V18H20.8672V14.0391H13.0977V12.7617L20.7383 0.9375H23.0469V12.2695ZM15.5586 12.2695H20.8672V3.90234L20.6094 4.37109L15.5586 12.2695Z" fill="#118BAE"/>
</svg>
