<svg width="97" height="104" viewBox="0 0 97 104" fill="none" xmlns="http://www.w3.org/2000/svg">
<path d="M87.3443 63.2644C86.3193 62.3656 85.3515 61.5167 84.9113 60.7242C84.8717 60.6515 84.8285 60.578 84.7792 60.4958L84.7566 60.4583C82.9685 57.5935 82.2804 50.2601 81.8675 45.8613C81.8056 45.2023 81.7466 44.5706 81.6872 43.98C81.6807 43.9155 81.6728 43.8513 81.6645 43.7857L81.6595 43.7497C80.6993 37.0245 78.3116 27.3232 72.391 19.299C68.3416 13.8123 63.3237 10.0744 57.4532 8.16749C56.6747 3.79394 52.8481 0.462524 48.2589 0.462524C43.6682 0.462524 39.8401 3.79646 39.0638 8.17289C33.2472 10.0802 28.1138 13.8967 24.1267 19.3012C18.2061 27.3236 15.8185 37.0245 14.8582 43.7504L14.8532 43.7864C14.8449 43.852 14.837 43.9162 14.8305 43.9796C14.7704 44.5785 14.7106 45.2141 14.648 45.8794C14.2366 50.2612 13.5485 57.5953 11.7612 60.4583L11.7378 60.4962C11.7029 60.5542 11.6694 60.6118 11.619 60.7005C11.1662 61.5156 10.1981 62.3653 9.17303 63.2651C6.46684 65.6398 0.836362 70.5816 5.4976 79.2479C6.45172 81.0237 8.29592 82.1264 10.31 82.1264H23.2935C34.3907 82.1264 28.1617 82.1264 34.3907 82.1264C40.6197 82.1264 35.1847 82.1264 47.0758 82.1264H86.207C88.2186 82.1264 90.062 81.0241 91.019 79.2487C95.6799 70.583 90.0512 65.6412 87.3443 63.2644ZM86.2668 76.6841C86.2542 76.7071 86.2315 76.7212 86.2074 76.7212H10.3107C10.2866 76.7212 10.2636 76.7075 10.252 76.6859C7.81148 72.148 9.64955 70.0353 12.7326 67.3294C14.0588 66.1655 15.4301 64.9616 16.3205 63.358L16.3576 63.2939C18.6204 59.6425 19.383 53.2117 20.0237 46.3849C20.0849 45.7316 20.1435 45.1075 20.2026 44.5187L20.2058 44.4917C21.0804 38.3834 23.224 29.6201 28.469 22.5129C32.1841 17.4771 36.8291 14.2321 42.2746 12.8675L44.3185 12.3555V9.81211C44.3185 7.63705 46.0861 5.86738 48.2585 5.86738C50.4309 5.86738 52.1985 7.63705 52.1985 9.81211V12.354L54.2421 12.8664C59.6879 14.2321 64.3333 17.4774 68.0483 22.5119C73.2933 29.6208 75.4366 38.383 76.3112 44.4917L76.3148 44.5208C76.3735 45.1017 76.4314 45.7212 76.4937 46.3849C77.1361 53.2297 77.9013 59.6756 80.1612 63.2961L80.1799 63.3274C81.089 64.9652 82.4607 66.1677 83.7869 67.3302C86.8689 70.0356 88.7062 72.1487 86.2668 76.6841Z" fill="#118BAE"/>
<path d="M57.7404 88.1353C55.3205 90.058 51.4506 91.3003 47.8816 91.3002C44.2795 91.3002 40.3805 90.0351 37.9488 88.0769C37.2314 87.4993 36.2045 87.5671 35.5679 88.2044C35.5225 88.2499 35.4788 88.2986 35.4376 88.3497C34.8194 89.1194 34.9413 90.245 35.7101 90.864C38.7841 93.3391 43.448 94.8766 47.8815 94.8768C52.2736 94.877 56.9019 93.3673 59.961 90.9368C60.7339 90.3238 60.8627 89.198 60.2498 88.4244C59.6368 87.6509 58.5134 87.5212 57.7404 88.1353Z" fill="#118BAE"/>
<path d="M53.6297 84.1756C52.3207 85.2154 49.8257 85.97 47.6974 85.97C45.5508 85.9699 43.0385 85.2014 41.7237 84.1422C41.0061 83.5644 39.9792 83.6322 39.3426 84.2695C39.2972 84.315 39.2537 84.3636 39.2125 84.4147C38.5943 85.1843 38.716 86.3101 39.4848 86.9291C41.7299 88.7372 45.2276 89.5465 47.6977 89.5465C50.1458 89.5467 53.616 88.752 55.8504 86.9773C56.6247 86.3636 56.7525 85.2385 56.1395 84.4649C55.5262 83.6913 54.4025 83.5617 53.6297 84.1756Z" fill="#118BAE"/>
</svg>
