<svg width="110" height="110" viewBox="0 0 110 110" fill="none" xmlns="http://www.w3.org/2000/svg">
<g clip-path="url(#clip0)">
<path d="M33.5154 79.4927C32.3294 79.4927 31.3669 80.4552 31.3669 81.6411C31.3669 82.8271 32.3294 83.7896 33.5154 83.7896C34.7013 83.7896 35.6638 82.8271 35.6638 81.6411C35.6638 80.4552 34.7013 79.4927 33.5154 79.4927Z" fill="#118BAE"/>
<path d="M96.7104 40.8206L109.371 28.1601C109.903 27.6275 110.118 26.8549 109.937 26.124C109.756 25.3929 109.205 24.8102 108.485 24.5881L77.6552 15.0726C74.876 6.13922 66.6157 0.000488281 57.1482 0.000488281C48.3473 0.000488281 40.4763 5.36406 37.2186 13.4551L1.50861 24.59C0.790815 24.8139 0.242105 25.397 0.0622805 26.1272C-0.117544 26.8573 0.0973 27.6285 0.629038 28.1603L13.6226 41.1538L5.42757 54.8125C5.0922 55.3713 5.02882 56.0522 5.25484 56.6634C5.48085 57.2746 5.9722 57.7501 6.59052 57.9561L18.4763 61.9178V94.9612C18.4763 95.8567 19.0319 96.6583 19.8704 96.9728C27.138 99.6979 54.1406 109.825 54.2856 109.877C54.7119 110.027 55.192 110.047 55.6602 109.896C55.6664 109.894 55.6729 109.892 55.6791 109.89L94.351 96.9994C95.2282 96.707 95.8201 95.8859 95.8201 94.9612V61.0331L108.495 57.0499C109.212 56.8247 109.759 56.2416 109.938 55.512C110.117 54.7824 109.902 54.0124 109.371 53.4811L96.7104 40.8206ZM78.6326 21.4849C78.6326 20.9389 78.6096 20.3943 78.5685 19.8514L103.811 27.6427L93.0913 38.3626L75.5755 32.5246C77.559 29.2094 78.6326 25.3839 78.6326 21.4849ZM40.8903 15.8929C43.2753 8.95732 49.8089 4.29736 57.1482 4.29736C65.0546 4.29736 71.912 9.64526 73.8239 17.3023C74.1636 18.6629 74.3357 20.0701 74.3357 21.4849C74.3357 25.4754 73.0114 29.2156 70.5054 32.3027C67.2233 36.3508 62.3547 38.6724 57.1482 38.6724C51.5201 38.6724 46.2412 35.9099 43.0259 31.2809C41.0207 28.4007 39.9607 25.013 39.9607 21.4849C39.9607 19.5661 40.2733 17.6847 40.8903 15.8929ZM6.17974 27.6343L35.8926 18.3694C35.7435 19.3959 35.6638 20.4358 35.6638 21.4847C35.6638 24.9439 36.4832 28.2943 38.0451 31.3174L16.9082 38.3626L6.17974 27.6343ZM10.4901 54.7266L17.2835 43.4039L51.7795 54.9025L44.9863 66.2252C41.3028 64.9974 14.4231 56.0373 10.4901 54.7266ZM52.8513 104.752L22.7732 93.4726V63.3502C46.4382 71.1967 45.2826 70.9572 45.9415 70.9572C46.6801 70.9572 47.3874 70.5749 47.7842 69.9139L52.8513 61.4681V104.752ZM54.9997 51.4468L23.1221 40.821L40.4802 35.0353C44.5429 40.0298 50.6588 42.9692 57.1482 42.9692C63.1513 42.9692 68.7934 40.4988 72.8515 36.146L86.8774 40.8208L54.9997 51.4468ZM91.5232 93.4128L57.1482 104.871V59.8355L64.7646 69.3553C65.3187 70.0477 66.241 70.3283 67.0864 70.0628L91.5232 62.3836V93.4128ZM67.2011 65.5229L58.6022 54.7751L93.0913 43.2788L103.826 54.0133L67.2011 65.5229Z" fill="#118BAE"/>
<path d="M47.1606 84.2611L42.3825 82.4693C41.2715 82.0529 40.0332 82.6156 39.6164 83.7266C39.1998 84.8377 39.7627 86.0761 40.8736 86.4927L45.6517 88.2845C46.7651 88.7017 48.0019 88.1362 48.4179 87.0272C48.8344 85.9163 48.2716 84.6777 47.1606 84.2611Z" fill="#118BAE"/>
<path d="M47.1604 93.4391L34.2698 88.6051C33.1588 88.1885 31.9204 88.7514 31.5037 89.8624C31.0869 90.9734 31.65 92.2119 32.7609 92.6285L45.6516 97.4625C45.9001 97.5557 46.1549 97.6 46.4057 97.6C47.2756 97.6 48.0941 97.0678 48.4177 96.2052C48.8345 95.0941 48.2716 93.8557 47.1604 93.4391Z" fill="#118BAE"/>
<path d="M69.4098 13.5199C68.5708 12.6807 67.2104 12.681 66.3712 13.5199L54.9998 24.8916L52.222 22.1139C51.3831 21.2749 50.0227 21.2749 49.1835 22.1139C48.3443 22.9529 48.3445 24.3132 49.1835 25.1524L53.4806 29.4491C54.3196 30.2881 55.68 30.2881 56.5191 29.4491L69.4098 16.5585C70.2487 15.7195 70.2487 14.3591 69.4098 13.5199Z" fill="#118BAE"/>
</g>
<defs>
<clipPath id="clip0">
<rect width="110" height="110" fill="white"/>
</clipPath>
</defs>
</svg>
