<svg width="95" height="96" viewBox="0 0 95 96" fill="none" xmlns="http://www.w3.org/2000/svg">
<g clip-path="url(#clip0)">
<path d="M28.9167 55.2814C29.7904 55.2814 30.6116 55.6203 31.2294 56.2356C31.5788 56.5836 32.0366 56.7578 32.4947 56.7575C32.9525 56.7575 33.4106 56.5836 33.7599 56.2356C34.4589 55.5396 34.4589 54.4112 33.7599 53.715C32.4663 52.4265 30.7463 51.7169 28.917 51.7169C27.0876 51.7169 25.3677 52.4265 24.074 53.715C23.3751 54.411 23.3751 55.5394 24.074 56.2356C24.773 56.9318 25.9058 56.9315 26.6043 56.2356C27.2218 55.6203 28.0431 55.2814 28.9167 55.2814Z" fill="#118BAE"/>
<path d="M61.1265 53.7151C60.4276 54.4111 60.4276 55.5395 61.1265 56.2357C61.8252 56.9316 62.9581 56.9316 63.6568 56.2357C64.9319 54.9654 67.007 54.9656 68.2821 56.2357C68.6315 56.5836 69.0893 56.7576 69.5474 56.7576C70.0054 56.7576 70.4633 56.5836 70.8126 56.2357C71.5116 55.5397 71.5116 54.4113 70.8126 53.7151C68.1425 51.0554 63.7972 51.0551 61.1265 53.7151Z" fill="#118BAE"/>
<path d="M65.9598 71.2969C55.7496 81.4668 39.1367 81.4668 28.9263 71.2969C28.2276 70.6009 27.0948 70.6009 26.396 71.2969C25.6971 71.9928 25.6971 73.1214 26.396 73.8174C32.1987 79.5972 39.8209 82.4871 47.4431 82.4871C55.0655 82.4871 62.6876 79.5972 68.4903 73.8174C69.1893 73.1214 69.1893 71.9931 68.4903 71.2969C67.7916 70.6009 66.6585 70.6009 65.9598 71.2969Z" fill="#118BAE"/>
<path d="M89.6619 57.2018C89.6619 52.3606 86.1481 48.3238 81.5282 47.4819V17.6666C81.5282 13.7986 79.5964 10.2128 76.3607 8.07431C73.3214 6.06595 69.5486 5.61014 66.1369 6.80758L54.9032 3.00962C46.2712 0.0909798 37.185 -0.208437 28.627 2.14345C17.4233 5.2225 11.0002 11.7335 10.0087 20.9887C9.13127 22.1413 8.43412 23.4359 7.9604 24.8327L7.08901 27.4016C6.62134 28.7808 7.13688 30.2302 8.37239 31.0082C9.60767 31.7861 11.1436 31.6289 12.1939 30.6163C12.5526 30.2703 12.9449 29.979 13.3578 29.7352V47.4819C8.73785 48.3238 5.22412 52.3603 5.22412 57.2018C5.22412 62.2369 9.02436 66.4017 13.9174 67.0072C15.1462 73.7655 18.3752 79.9996 23.3126 84.9883C29.7587 91.5015 38.3281 95.0882 47.443 95.0882C47.4441 95.0882 47.4452 95.0882 47.4464 95.0882C56.5496 95.0874 65.1078 91.5559 71.5448 85.1445C76.573 80.1361 79.8366 73.8386 81.0249 67.0001C85.8907 66.3694 89.6619 62.2173 89.6619 57.2018ZM74.3822 11.0446C76.6494 12.5428 77.9496 14.9564 77.9496 17.6666V40.9892C72.3958 40.1295 68.1315 35.3344 68.1315 29.5652L67.9834 9.9695C70.1684 9.39584 72.4468 9.76566 74.3822 11.0446ZM11.0031 26.9986L11.3509 25.9736C12.2619 23.288 14.2849 21.1076 16.9011 19.9919C19.517 18.8763 22.4973 18.9226 25.0772 20.1196C30.4957 22.6332 37.0461 21.2743 41.0062 16.8151L41.4495 16.3158C42.1044 15.5787 42.0351 14.4523 41.295 13.8002C40.5547 13.1481 39.4238 13.217 38.7692 13.9541L38.3259 14.4534C35.4075 17.7394 30.5807 18.7406 26.5881 16.8884C23.0871 15.2641 19.0426 15.201 15.4924 16.7153C15.1692 16.8532 14.855 17.0071 14.5457 17.1682C16.6255 11.6453 21.6592 7.75596 29.5791 5.57939C37.4433 3.41798 45.8024 3.69668 53.7534 6.38474L64.4048 9.98599L64.5444 19.195C59.8017 25.618 52.8847 29.966 45.0024 31.4611C36.9311 32.9918 28.6972 31.372 21.8169 26.8999C18.4551 24.7151 14.2164 24.8084 11.0031 26.9986ZM8.80271 57.2018C8.80271 54.3362 10.7282 51.9114 13.3578 51.14V60.8001C13.3578 61.6347 13.388 62.4645 13.4468 63.2891C10.7721 62.5465 8.80271 60.0997 8.80271 57.2018ZM69.0145 82.6237C63.2534 88.3621 55.5937 91.5227 47.4461 91.5236C47.4448 91.5236 47.4446 91.5236 47.443 91.5236C39.2943 91.5236 31.629 88.3135 25.861 82.4858C20.1059 76.6708 16.9364 68.9693 16.9364 60.7999V28.8949C17.9498 28.9702 18.9554 29.2968 19.8608 29.8852C27.5203 34.8636 36.6864 36.667 45.6714 34.9628C52.9648 33.5793 59.5167 30.003 64.5527 24.7287V29.565C64.5527 37.3024 70.4164 43.6975 77.9494 44.5826V61.137C77.9496 69.2538 74.7765 76.8847 69.0145 82.6237ZM81.4591 63.2833C81.5033 62.5717 81.5282 61.8563 81.5282 61.1372V51.14C84.1578 51.9114 86.0833 54.3362 86.0833 57.2018C86.0833 60.0924 84.124 62.5343 81.4591 63.2833Z" fill="#118BAE" stroke="#118BAE" stroke-width="1.5"/>
</g>
<defs>
<clipPath id="clip0">
<rect width="94.8861" height="94.512" fill="white" transform="translate(0 0.575928)"/>
</clipPath>
</defs>
</svg>
