<svg width="110" height="110" viewBox="0 0 110 110" fill="none" xmlns="http://www.w3.org/2000/svg">
<g clip-path="url(#clip0)">
<path d="M105 55.4613V40.001C105 34.7586 100.934 30.4952 95.796 30.0818L81.4384 5.00404C80.1079 2.68471 77.9594 1.027 75.3886 0.338651C72.83 -0.34501 70.1544 0.0140471 67.8643 1.34692L18.6457 30.0011H10.0014C4.48639 30.0011 0.00146484 34.4858 0.00146484 40.001V100C0.00146484 105.515 4.48616 110 10.0014 110H95.0001C100.515 110 105 105.515 105 100V84.5398C107.904 83.5043 110 80.7554 110 77.5004V62.5007C110 59.2457 107.904 56.4968 105 55.4613ZM89.9862 30.0011H68.1964L84.5389 20.4866L89.9862 30.0011ZM82.0548 16.1477L58.2593 30.0011H48.3893L79.5869 11.8374L82.0548 16.1477ZM70.3813 5.66802C71.5116 5.00639 72.8323 4.83061 74.0946 5.16763C75.3715 5.50935 76.436 6.33457 77.0976 7.48932L77.1028 7.49846L38.4526 30.0011H28.583L70.3813 5.66802ZM99.9999 100C99.9999 102.756 97.7563 105 95.0001 105H10.0014C7.24517 105 5.00154 102.756 5.00154 100V40.001C5.00154 37.2448 7.24517 35.0012 10.0014 35.0012H95.0001C97.7563 35.0012 99.9999 37.2448 99.9999 40.001V55.0008H85.0002C76.7287 55.0008 70.0004 61.7291 70.0004 70.0006C70.0004 78.272 76.7287 85.0003 85.0002 85.0003H99.9999V100ZM105 77.5004C105 78.8797 103.879 80.0005 102.5 80.0005H85.0002C79.4852 80.0005 75.0002 75.5158 75.0002 70.0006C75.0002 64.4856 79.4849 60.0006 85.0002 60.0006H102.5C103.879 60.0006 105 61.1212 105 62.5007V77.5004Z" fill="#118BAE"/>
<path d="M84.9994 65.001C82.2431 65.001 79.9995 67.2446 79.9995 70.0008C79.9995 72.757 82.2431 75.0006 84.9994 75.0006C87.7556 75.0006 89.9992 72.757 89.9992 70.0008C89.9994 67.2446 87.7558 65.001 84.9994 65.001Z" fill="#118BAE"/>
</g>
<defs>
<clipPath id="clip0">
<rect width="110" height="110" fill="white"/>
</clipPath>
</defs>
</svg>
