<svg width="110" height="110" viewBox="0 0 110 110" fill="none" xmlns="http://www.w3.org/2000/svg">
<g clip-path="url(#clip0)">
<path d="M106.004 14.9639L74.7764 8.51026C74.4715 8.44751 74.1623 8.41541 73.8563 8.41541C73.2226 8.41541 72.6283 8.55331 72.0947 8.79554C71.8895 8.76125 71.6795 8.73973 71.4622 8.73973C70.8002 8.73973 70.1431 8.90572 69.509 9.23332L37.9428 25.541C37.7284 25.6519 37.5213 25.7807 37.322 25.9237C37.1058 25.8182 36.8833 25.7263 36.6534 25.6552L5.3365 15.9474C4.90034 15.8117 4.45609 15.7431 4.01515 15.7431C1.76375 15.7435 0 17.542 0 19.8385V87.3493C0 89.5356 1.5865 91.6768 3.69042 92.3287L35.0081 102.036C35.4442 102.171 35.8889 102.24 36.3294 102.24C36.8428 102.24 37.3286 102.142 37.7762 101.971C38.0207 102.021 38.2749 102.047 38.5374 102.047C39.2001 102.047 39.8573 101.881 40.491 101.553L72.0565 85.2461C72.3176 85.1115 72.5669 84.9484 72.8045 84.7675C73.0759 84.8788 73.3594 84.9667 73.6522 85.0272L104.88 91.4805C105.185 91.5436 105.494 91.5753 105.8 91.5753C108.155 91.5753 110 89.7191 110 87.3497V19.8385C110 17.5303 108.282 15.4345 106.004 14.9639ZM5.51633 21.7363L34.8279 30.8221V96.2475L5.51633 87.1614V21.7363ZM40.3442 95.4592V30.6842C40.3711 30.5908 40.4641 30.4386 40.5354 30.3723L69.6561 15.3279V80.1033C69.6293 80.1963 69.5363 80.3485 69.4653 80.4152L40.3442 95.4592ZM104.484 85.8083L75.1721 79.7516V14.1821L104.484 20.2395V85.8083Z" fill="#118BAE"/>
<path d="M54.9999 32.209C50.3738 32.209 46.6101 36.0383 46.6101 40.7452C46.6101 44.8682 49.4979 48.3151 53.322 49.1089V52.6958C53.322 53.6399 54.0737 54.4031 54.9999 54.4031C55.9262 54.4031 56.6779 53.6399 56.6779 52.6958V49.1089C60.502 48.3151 63.3898 44.8682 63.3898 40.7452C63.3898 36.0383 59.6261 32.209 54.9999 32.209ZM54.9999 45.8669C52.2246 45.8669 49.966 43.5689 49.966 40.7452C49.966 37.9214 52.2246 35.6235 54.9999 35.6235C57.7753 35.6235 60.0338 37.9214 60.0338 40.7452C60.0338 43.5689 57.7753 45.8669 54.9999 45.8669Z" fill="#118BAE"/>
<path d="M13.6483 49.2905C14.0455 49.6845 14.567 49.8826 15.0884 49.8826C15.6099 49.8826 16.1314 49.6845 16.5286 49.2905L19.1625 46.6776L21.7964 49.2905C22.1936 49.6845 22.7151 49.8826 23.2366 49.8826C23.7581 49.8826 24.2796 49.6845 24.6768 49.2905C25.4733 48.5004 25.4733 47.2232 24.6768 46.4331L22.0429 43.8203L24.6768 41.2074C25.4733 40.4173 25.4733 39.1402 24.6768 38.3501C23.8803 37.56 22.5929 37.56 21.7964 38.3501L19.1625 40.9629L16.5286 38.3501C15.7322 37.56 14.4447 37.56 13.6483 38.3501C12.8518 39.1402 12.8518 40.4173 13.6483 41.2074L16.2822 43.8203L13.6483 46.4331C12.8518 47.2212 12.8518 48.5004 13.6483 49.2905Z" fill="#118BAE"/>
<path d="M92.6387 54.4196C92.8832 54.5146 93.1337 54.557 93.3802 54.557C94.195 54.557 94.963 54.07 95.2787 53.2718C96.2361 50.8489 97.0041 48.1128 97.5663 45.1403C97.7741 44.045 97.0448 42.9902 95.9387 42.7821C94.8265 42.6002 93.7693 43.3014 93.5615 44.3987C93.0482 47.1227 92.3495 49.6122 91.4858 51.8007C91.0763 52.8374 91.5917 54.0114 92.6387 54.4196Z" fill="#118BAE"/>
<path d="M26.9137 63.8545C24.455 65.3842 22.2387 67.2999 20.3239 69.5531C19.5987 70.4058 19.7087 71.6809 20.5683 72.4003C20.9513 72.7196 21.4177 72.8752 21.8802 72.8752C22.4607 72.8752 23.0352 72.6307 23.4385 72.1578C25.0803 70.226 26.9768 68.5831 29.077 67.2797C30.0303 66.6856 30.3176 65.4388 29.7207 64.4931C29.1239 63.5473 27.865 63.2604 26.9137 63.8545Z" fill="#118BAE"/>
<path d="M18.403 75.8458C17.3804 75.381 16.1704 75.8195 15.6999 76.8339C13.6099 81.3321 13.0925 84.9634 13.0701 85.117C12.9173 86.2223 13.6954 87.2388 14.8097 87.3903C14.9034 87.4045 14.9991 87.4106 15.0908 87.4106C16.091 87.4106 16.9628 86.679 17.1075 85.6707C17.1115 85.6383 17.578 82.4435 19.3991 78.5293C19.8697 77.5129 19.4236 76.3146 18.403 75.8458Z" fill="#118BAE"/>
<path d="M83.1726 66.6573C83.4842 66.6573 83.802 66.5866 84.0974 66.437C86.7292 65.1013 89.0494 63.2058 90.9907 60.8072C91.6955 59.9363 91.555 58.6632 90.677 57.966C89.8011 57.2729 88.5178 57.4083 87.8129 58.2772C86.2322 60.2313 84.3581 61.765 82.2416 62.8381C81.2394 63.3473 80.8422 64.5638 81.3555 65.558C81.7181 66.2552 82.4331 66.6573 83.1726 66.6573Z" fill="#118BAE"/>
<path d="M60.2497 62.0157C59.3514 61.6418 58.8258 61.3832 58.7912 61.365C58.6588 61.2983 58.5183 61.2437 58.3736 61.2074C56.1675 60.6456 53.994 60.201 51.9101 59.8858C50.7999 59.712 49.759 60.4738 49.5879 61.5772C49.4188 62.6805 50.1827 63.7131 51.2949 63.8808C53.1812 64.1678 55.151 64.5679 57.1555 65.0731C57.4284 65.2024 57.9499 65.4469 58.6792 65.748C58.9358 65.8551 59.2027 65.9036 59.4634 65.9036C60.2599 65.9036 61.0177 65.4388 61.3436 64.6629C61.7775 63.6282 61.2886 62.4441 60.2497 62.0157Z" fill="#118BAE"/>
<path d="M96.4133 38.7749C96.4582 38.7769 96.5009 38.779 96.5457 38.779C97.6111 38.779 98.5074 37.9585 98.5767 36.8855C98.703 34.9436 98.7661 32.8884 98.7661 30.7828C98.7661 30.0816 98.76 29.3703 98.7457 28.6448C98.7254 27.5274 97.7476 26.6786 96.672 26.6605C95.5476 26.6807 94.6513 27.6021 94.6717 28.7176C94.6839 29.4188 94.6921 30.1079 94.6921 30.7828C94.6921 32.8036 94.6309 34.7698 94.5108 36.6289C94.4395 37.7423 95.2909 38.7022 96.4133 38.7749Z" fill="#118BAE"/>
</g>
<defs>
<clipPath id="clip0">
<rect width="110" height="109.121" fill="white" transform="translate(0 0.767334)"/>
</clipPath>
</defs>
</svg>
