<svg width="95" height="96" viewBox="0 0 95 96" fill="none" xmlns="http://www.w3.org/2000/svg">
<g clip-path="url(#clip0)">
<path d="M92.2652 71.5128L78.5346 57.8304C76.6906 56.0031 74.2214 54.9963 71.5828 54.9963C68.8369 54.9963 66.2443 56.0732 64.284 58.0269L58.9392 63.3495C54.786 61.0501 49.2659 57.8876 43.5348 52.1791C37.8103 46.4752 34.6349 40.9929 32.3146 36.8338L37.6645 31.5089C41.6421 27.5388 41.7234 21.1695 37.8465 17.3113L24.1186 3.63714C22.2797 1.80045 19.8105 0.78894 17.1652 0.78894C14.4806 0.78894 11.941 1.81846 9.99216 3.69233C8.81316 4.63808 2.89653 9.84047 0.691408 20.5694C-2.396 35.5866 4.69765 50.0355 25.1761 70.4414C48.0523 93.2204 67.5817 94.9909 73.0224 94.9909C74.155 94.9909 74.8384 94.9212 75.0208 94.9001C85.6896 93.6545 89.5095 88.9352 92.2987 85.4892C95.9127 81.0231 95.9001 75.1467 92.2652 71.5128ZM87.7092 81.8037C85.0875 85.0426 82.6116 88.1014 74.335 89.0679C74.3307 89.0682 73.8779 89.1187 73.0224 89.1187C68.1547 89.1187 50.6182 87.4723 29.3447 66.2893C10.4598 47.4711 3.83148 34.5661 6.46655 21.7469C8.3899 12.3888 13.4962 8.41128 13.6946 8.26018L13.8707 8.13061L14.0251 7.97638C14.8775 7.1281 15.9925 6.66071 17.1648 6.66071C18.2322 6.66071 19.2194 7.05921 19.9473 7.78652L33.6783 21.4638C35.2582 23.0359 35.1741 25.6813 33.4932 27.3591L27.443 33.3804L27.3435 33.4841C25.7668 35.2139 25.9523 37.5517 26.8208 39.0741C29.327 43.5789 32.7599 49.7485 39.3654 56.33C45.949 62.8876 52.134 66.3042 56.6441 68.7958C57.0956 69.0483 58.0278 69.4718 59.1946 69.4718C60.5725 69.4718 61.8376 68.8909 62.7741 67.832L68.4522 62.1779C69.2999 61.3331 70.4113 60.8677 71.582 60.8677C72.6518 60.8677 73.6441 61.2674 74.3704 61.9869L88.092 75.6603C89.8349 77.4026 89.1153 80.0664 87.7092 81.8037Z" fill="#118BAE"/>
<path d="M57.5538 15.1743C62.6184 15.7548 68.5818 18.8105 72.746 22.9587C76.9492 27.1453 80.0244 33.1455 80.5797 38.2449C80.7436 39.7492 82.0208 40.8641 83.5064 40.8641C83.6125 40.8641 83.7202 40.8582 83.8278 40.8469C85.4462 40.6719 86.6158 39.2235 86.4401 37.6115C85.7378 31.1655 82.0876 23.9601 76.9146 18.807C71.7898 13.7021 64.6298 10.0753 58.2278 9.3413C56.6114 9.15458 55.149 10.3117 54.9628 11.9221C54.7765 13.5326 55.9362 14.9888 57.5538 15.1743Z" fill="#118BAE"/>
<path d="M54.8002 27.473C57.5394 27.7873 61.3303 29.8111 63.8137 32.2847C66.3183 34.7798 68.354 38.5917 68.6539 41.3495C68.8177 42.8543 70.095 43.9691 71.5805 43.9691C71.6866 43.9691 71.7939 43.9632 71.9016 43.9519C73.52 43.7769 74.69 42.3285 74.5143 40.7165C74.0018 36.0082 70.8637 31.0035 67.9814 28.1326C65.1251 25.2871 60.1497 22.1762 55.4742 21.6395C53.8554 21.452 52.395 22.6096 52.2088 24.22C52.0229 25.8308 53.183 27.2874 54.8002 27.473Z" fill="#118BAE"/>
</g>
<defs>
<clipPath id="clip0">
<rect width="95" height="94.6255" fill="white" transform="translate(0 0.575928)"/>
</clipPath>
</defs>
</svg>
