<svg width="110" height="110" viewBox="0 0 110 110" fill="none" xmlns="http://www.w3.org/2000/svg">
<path d="M101.428 96.3707L84.582 67.196C91.1698 60.0435 95.1225 50.5381 95.1225 40.0917C95.1225 28.9865 90.6051 19.0106 83.3585 11.764C76.1119 4.51738 66.136 0 55.0308 0C43.9256 0 33.9497 4.51738 26.7031 11.764C19.4564 19.0106 14.9391 28.9865 14.9391 40.0917C14.9391 50.5381 18.8918 60.0435 25.4796 67.196L8.63356 96.3707C8.35123 96.8413 8.25711 97.5 8.44534 98.1588C8.82179 99.1941 9.95113 99.6646 10.9864 99.2882L24.4444 93.9238L26.5148 108.323C26.609 108.888 26.8913 109.452 27.456 109.735C28.3971 110.299 29.6205 109.923 30.1852 108.982L47.2195 79.5247C49.6664 79.9952 52.3015 80.2775 54.8426 80.2775C57.4777 80.2775 60.0187 79.9952 62.4656 79.5247L79.4999 108.982C80.0646 109.923 81.288 110.205 82.2291 109.735C82.7938 109.452 83.0762 108.888 83.1703 108.323L85.2407 93.9238L98.6988 99.2882C99.734 99.6646 100.863 99.1941 101.24 98.1588C101.804 97.5 101.71 96.8413 101.428 96.3707ZM29.8088 102.017L28.1147 90.8181C27.9265 89.7829 26.9854 89.03 25.8561 89.1241C25.6678 89.1241 25.4796 89.2182 25.2914 89.3123L14.845 93.4532L28.3971 70.0193C32.6321 73.7838 37.7142 76.7013 43.3609 78.3953L29.8088 102.017ZM55.0308 76.2307C45.0549 76.2307 36.0202 72.1839 29.5264 65.6902C23.0327 59.1965 18.9859 50.1617 18.9859 40.1858C18.9859 30.21 23.0327 21.1752 29.5264 14.6815C36.0202 7.99952 45.0549 3.9527 55.0308 3.9527C65.0067 3.9527 74.0414 7.99952 80.5351 14.4932C87.0289 20.987 91.0757 30.0217 91.0757 39.9976C91.0757 49.9735 87.0289 59.0082 80.5351 65.502C74.0414 72.1839 65.0067 76.2307 55.0308 76.2307ZM84.7702 89.3123C84.582 89.2182 84.3937 89.1241 84.2055 89.1241C83.1703 88.9358 82.135 89.6887 81.9468 90.8181L80.2528 102.017L66.7007 78.3953C72.3474 76.7013 77.4294 73.7838 81.6645 70.0193L95.2166 93.4532L84.7702 89.3123Z" fill="#118BAE"/>
<path d="M73.4769 33.1271C73.0063 32.4683 72.4416 31.9978 71.7828 31.7154C71.1241 31.4331 70.3712 31.2449 69.6183 31.339H61.807L59.3601 23.6218C58.9836 22.4925 58.1366 21.5513 57.1955 20.9867C56.5367 20.7043 55.8779 20.5161 55.125 20.5161C54.3721 20.5161 53.7133 20.7043 53.0546 20.9867C52.0193 21.5513 51.2664 22.3984 50.89 23.6218L48.4431 31.339H40.6318C39.8789 31.2449 39.126 31.4331 38.4672 31.7154C37.8084 31.9978 37.2437 32.4683 36.7732 33.1271C36.0203 34.1624 35.8321 35.2917 36.0203 36.421C36.2085 37.5504 36.7732 38.5856 37.8084 39.3385L44.3963 44.0441L41.8552 51.7613C41.8552 51.8554 41.8552 51.9495 41.7611 51.9495C41.5729 52.5142 41.5729 53.173 41.667 53.8318C41.7611 54.4906 42.0435 55.1493 42.514 55.714C43.2669 56.7492 44.3021 57.3139 45.4315 57.5021C46.5608 57.6904 47.7843 57.408 48.7254 56.6551L55.3132 51.8554L61.9011 56.6551C62.9363 57.408 64.0657 57.5962 65.195 57.5021C66.3243 57.3139 67.3596 56.7492 68.1125 55.714C68.583 55.1493 68.7713 54.4906 68.9595 53.8318C69.0536 53.173 69.0536 52.6083 68.8654 51.9495C68.8654 51.8554 68.8654 51.7613 68.7713 51.7613L66.2302 44.0441L72.8181 39.3385C73.8533 38.5856 74.418 37.5504 74.6062 36.421C74.5121 35.3858 74.2298 34.1624 73.4769 33.1271ZM70.1829 36.1387L70.0888 36.2328L62.4658 41.7854C61.807 42.256 61.4305 43.1971 61.7129 43.95L64.6303 52.8906V52.9848C64.6303 53.0789 64.6303 53.173 64.6303 53.2671C64.6303 53.3612 64.6303 53.4553 64.5362 53.4553C64.4421 53.5494 64.348 53.6435 64.1598 53.6435C64.0657 53.6435 63.8774 53.6435 63.7833 53.5494L56.0661 47.9027C55.6897 47.6204 55.3132 47.5263 54.8427 47.5263C54.4662 47.5263 53.9957 47.6204 53.6192 47.9027L45.902 53.5494C45.8079 53.6435 45.6197 53.6435 45.5256 53.6435C45.4315 53.6435 45.2433 53.5494 45.1491 53.4553C45.055 53.3612 45.055 53.2671 45.055 53.2671C45.055 53.173 45.055 53.0789 45.055 52.9848V52.8906L47.9725 43.95C48.2548 43.103 47.9725 42.256 47.2196 41.7854L39.973 36.2328L39.8789 36.1387C39.7848 36.0446 39.6907 35.9505 39.6907 35.8564C39.6907 35.7623 39.6906 35.574 39.7848 35.4799C39.7848 35.4799 39.7848 35.3858 39.8789 35.3858C39.973 35.2917 39.973 35.2917 40.0671 35.2917C40.1612 35.2917 40.2553 35.1976 40.3494 35.1976C40.4435 35.1976 40.5377 35.1976 40.6318 35.1976H49.8547C50.7018 35.1976 51.4547 34.6329 51.737 33.7859L54.6545 24.7512C54.6545 24.657 54.7486 24.4688 54.9368 24.4688C55.0309 24.4688 55.125 24.3747 55.125 24.3747C55.2191 24.3747 55.3132 24.3747 55.3132 24.4688C55.4074 24.5629 55.5015 24.657 55.5956 24.7512L58.5131 33.7859C58.7954 34.5388 59.5483 35.1976 60.3953 35.1976H69.6183C69.7124 35.1976 69.8065 35.1976 69.9006 35.1976C69.9947 35.1976 70.0888 35.1976 70.1829 35.2917C70.2771 35.2917 70.2771 35.3858 70.3712 35.3858C70.3712 35.3858 70.3712 35.4799 70.4653 35.4799C70.5594 35.574 70.5594 35.6681 70.5594 35.8564C70.3712 35.9505 70.2771 36.0446 70.1829 36.1387Z" fill="#118BAE"/>
<path d="M77.1472 17.9755C71.5004 12.3288 63.6891 8.84668 55.0308 8.84668C46.3725 8.84668 38.5612 12.3288 32.9145 17.9755C27.2678 23.6223 23.7856 31.4336 23.7856 40.0919C23.7856 48.7502 27.2678 56.5615 32.9145 62.2082C38.5612 67.8549 46.3725 71.337 55.0308 71.337C63.6891 71.337 71.5004 67.8549 77.1472 62.2082C82.7939 56.5615 86.276 48.7502 86.276 40.0919C86.276 31.4336 82.7939 23.6223 77.1472 17.9755ZM74.4179 59.3848C69.43 64.3728 62.5598 67.3843 55.0308 67.3843C47.5019 67.3843 40.6317 64.2786 35.7379 59.3848C30.7499 54.3969 27.7383 47.6208 27.7383 40.0919C27.7383 32.5629 30.844 25.6927 35.7379 20.7989C40.6317 15.811 47.5019 12.7053 55.0308 12.7053C62.5598 12.7053 69.43 15.811 74.3238 20.7048C79.3117 25.6927 82.3233 32.4688 82.3233 39.9977C82.3233 47.5267 79.3117 54.491 74.4179 59.3848Z" fill="#118BAE"/>
</svg>
