<svg width="115" height="115" viewBox="0 0 115 115" fill="none" xmlns="http://www.w3.org/2000/svg">
<path d="M56.9908 43.8979C62.7843 43.8979 69.0735 46.2641 73.0141 49.9266C73.9756 50.82 75.4665 50.7512 76.3448 49.773C77.2224 48.7951 77.1554 47.2772 76.1939 46.3834C71.433 41.9587 63.8955 39.0995 56.9908 39.0995C50.1502 39.0995 42.6694 41.9072 37.933 46.2523C37.4165 46.726 37.1537 47.3793 37.1537 48.035C37.1537 48.6076 37.354 49.1818 37.7604 49.6406C38.632 50.6249 40.1229 50.7036 41.0898 49.8162C45.0093 46.2209 51.2504 43.8979 56.9908 43.8979Z" fill="#118BAE"/>
<path d="M70.148 57.6325C71.0324 56.5657 70.9644 54.9111 69.9964 53.9361C66.9418 50.8592 61.7256 48.7919 57.017 48.7919C53.1336 48.7919 47.6432 50.3533 44.1309 53.8419C43.6107 54.3582 43.3462 55.0709 43.3462 55.7864C43.3462 56.4105 43.5478 57.0367 43.9563 57.5369C44.8334 58.6107 46.3344 58.6969 47.3081 57.7295C49.4692 55.583 53.5522 54.0247 57.017 54.0247C60.5112 54.0247 64.6234 55.6123 66.7949 57.7993C67.7629 58.7743 69.2639 58.6993 70.148 57.6325Z" fill="#118BAE"/>
<path d="M80.0837 10.2241H34.9154C30.063 10.2241 26.1157 14.1563 26.1157 18.9891V96.2173C26.1157 101.05 30.063 104.982 34.9154 104.982H80.0837C84.9357 104.982 88.8834 101.05 88.8834 96.2173V18.9891C88.8834 14.1563 84.9361 10.2241 80.0837 10.2241ZM34.9154 16.0674H80.0837C81.7013 16.0674 83.0169 17.3779 83.0169 18.9891V79.7329H31.9822V18.9891C31.9822 17.3779 33.2982 16.0674 34.9154 16.0674ZM80.0837 99.1389H34.9154C33.2978 99.1389 31.9822 97.8285 31.9822 96.2173V85.5762H83.0169V96.2173C83.0169 97.8285 81.7013 99.1389 80.0837 99.1389Z" fill="#118BAE"/>
<path d="M60.7264 89.5037H54.2733C52.6534 89.5037 51.3401 90.8115 51.3401 92.4254C51.3401 94.0393 52.6534 95.347 54.2733 95.347H60.7264C62.3463 95.347 63.6596 94.0393 63.6596 92.4254C63.6596 90.8115 62.3463 89.5037 60.7264 89.5037Z" fill="#118BAE"/>
</svg>
