<svg width="94" height="94" viewBox="0 0 94 94" fill="none" xmlns="http://www.w3.org/2000/svg">
<g clip-path="url(#clip0)">
<path fill-rule="evenodd" clip-rule="evenodd" d="M33.9716 52.0591C33.9716 45.6414 28.7299 40.4197 22.2861 40.4197C15.843 40.4197 10.6013 45.6414 10.6013 52.0591C10.6013 58.4768 15.843 63.6985 22.2861 63.6985C28.7299 63.6985 33.9716 58.4768 33.9716 52.0591ZM14.2651 52.0591C14.2651 47.6536 17.8631 44.0691 22.2861 44.0691C26.7091 44.0691 30.3078 47.6536 30.3078 52.0591C30.3078 56.4647 26.7091 60.0492 22.2861 60.0492C17.8631 60.0492 14.2651 56.4647 14.2651 52.0591Z" fill="#118BAE" stroke="#118BAE" stroke-width="1.5"/>
<path fill-rule="evenodd" clip-rule="evenodd" d="M91.0666 15.5692L87.2633 9.37318L91.1232 3.08662C91.4688 2.52282 91.4817 1.8179 91.1582 1.24199C90.8341 0.666074 90.223 0.309692 89.5603 0.309692H74.1867C73.1749 0.309692 72.3549 1.12652 72.3549 2.13436V23.1687H61.7707C56.6499 23.1687 52.4845 27.3177 52.4845 32.4182V51.0256C52.4845 56.1261 56.6499 60.2751 61.7707 60.2751H78.8924C81.9923 60.2751 84.514 62.7876 84.514 65.8753V84.4834C84.514 87.5711 81.9923 90.0829 78.8924 90.0829H25.2487L40.3103 60.0349C40.3239 60.0086 40.3368 59.9815 40.3482 59.9544C41.4502 57.4576 42.0084 54.8011 42.0084 52.0584C42.0084 41.2265 33.1616 32.4139 22.2869 32.4139C11.4122 32.4139 2.5647 41.2265 2.5647 52.0584C2.5647 54.8018 3.12285 57.4583 4.22414 59.9544C4.2363 59.9815 4.24918 60.0086 4.26206 60.0349L15.7286 82.9103C16.1808 83.8112 17.2814 84.1776 18.1859 83.7279C19.0067 83.6123 19.4589 82.1819 19.0067 81.2802L7.56162 58.4462C6.67716 56.4269 6.22849 54.2779 6.22849 52.0577C6.22849 43.2387 13.4323 36.0633 22.2869 36.0633C31.1408 36.0633 38.3446 43.2387 38.3446 52.0577C38.3446 54.2779 37.8966 56.4269 37.0122 58.4455L22.2869 87.8227L19.0067 81.2802C18.5544 80.3786 20.0749 82.9103 18.1859 83.7279C16.2333 84.5729 15.2763 82.0087 15.7286 82.9103L20.6475 92.7229C20.6504 92.7286 20.6546 92.7336 20.6575 92.74C20.6933 92.8085 20.7319 92.8747 20.7756 92.9382C20.7813 92.9467 20.7877 92.9546 20.7942 92.9631C20.8321 93.0159 20.8729 93.0672 20.9166 93.1157C20.9301 93.1313 20.9445 93.147 20.9588 93.162C21.0081 93.214 21.0604 93.2646 21.1155 93.3102C21.1176 93.3117 21.1191 93.3138 21.1205 93.3152C21.1785 93.363 21.24 93.405 21.3037 93.4457C21.3187 93.4557 21.3345 93.4649 21.3502 93.4735C21.406 93.5077 21.464 93.5383 21.5241 93.5654C21.5341 93.5697 21.5434 93.5747 21.5527 93.579C21.6228 93.6096 21.6951 93.636 21.7702 93.6581C21.7831 93.6616 21.796 93.6638 21.8089 93.6681C21.8704 93.6844 21.9327 93.6973 21.9964 93.7073C22.0157 93.7108 22.035 93.7137 22.0543 93.7165C22.1302 93.7265 22.2075 93.7329 22.2869 93.7329H78.8924C84.0124 93.7329 88.1778 89.5839 88.1778 84.4834V65.8753C88.1778 60.7755 84.0124 56.6265 78.8924 56.6265H61.7707C58.6707 56.6265 56.1483 54.114 56.1483 51.0263V32.4182C56.1483 29.3305 58.6707 26.818 61.7707 26.818H72.3549V31.3042C72.3549 32.312 73.1756 33.1288 74.1867 33.1288C75.1986 33.1288 76.0186 32.312 76.0186 31.3042V18.4374H89.5603H89.5639C90.5758 18.4374 91.3958 17.6198 91.3958 16.6127C91.3958 16.2243 91.2742 15.865 91.0666 15.5692ZM76.0186 14.788V3.95904H86.293L83.5537 8.42164C83.1952 9.0054 83.1952 9.74097 83.5537 10.3254L86.293 14.788H76.0186Z" fill="#118BAE"/>
<path d="M15.7286 82.9103L4.26206 60.0349C4.24918 60.0086 4.2363 59.9815 4.22414 59.9544C3.12285 57.4583 2.5647 54.8018 2.5647 52.0584C2.5647 41.2265 11.4122 32.4139 22.2869 32.4139C33.1616 32.4139 42.0084 41.2265 42.0084 52.0584C42.0084 54.8011 41.4502 57.4576 40.3482 59.9544C40.3368 59.9815 40.3239 60.0086 40.3103 60.0349L25.2487 90.0829H78.8924C81.9923 90.0829 84.514 87.5711 84.514 84.4834V65.8753C84.514 62.7876 81.9923 60.2751 78.8924 60.2751H61.7707C56.6499 60.2751 52.4845 56.1261 52.4845 51.0256V32.4182C52.4845 27.3177 56.6499 23.1687 61.7707 23.1687H72.3548V2.13436C72.3548 1.12652 73.1749 0.309692 74.1867 0.309692H89.5603C90.223 0.309692 90.8341 0.666074 91.1582 1.24199C91.4817 1.8179 91.4688 2.52282 91.1232 3.08662L87.2633 9.37318L91.0666 15.5692C91.2742 15.865 91.3958 16.2243 91.3958 16.6127C91.3958 17.6198 90.5758 18.4374 89.5639 18.4374H89.5603H76.0186V31.3042C76.0186 32.312 75.1986 33.1288 74.1867 33.1288C73.1756 33.1288 72.3548 32.312 72.3548 31.3042V26.818H61.7707C58.6707 26.818 56.1483 29.3305 56.1483 32.4182V51.0263C56.1483 54.114 58.6707 56.6265 61.7707 56.6265H78.8924C84.0124 56.6265 88.1778 60.7755 88.1778 65.8753V84.4834C88.1778 89.5839 84.0124 93.7329 78.8924 93.7329H22.2869C22.2075 93.7329 22.1302 93.7265 22.0543 93.7165C22.035 93.7137 22.0157 93.7108 21.9964 93.7073C21.9327 93.6973 21.8704 93.6844 21.8089 93.6681C21.796 93.6638 21.7831 93.6616 21.7702 93.6581C21.6951 93.636 21.6228 93.6096 21.5527 93.579C21.5434 93.5747 21.5341 93.5697 21.5241 93.5654C21.464 93.5383 21.406 93.5077 21.3502 93.4735C21.3345 93.4649 21.3187 93.4556 21.3037 93.4457C21.24 93.405 21.1785 93.363 21.1205 93.3152C21.1191 93.3138 21.1176 93.3117 21.1155 93.3102C21.0604 93.2646 21.0081 93.214 20.9588 93.162C20.9445 93.147 20.9301 93.1313 20.9166 93.1157C20.8729 93.0672 20.8321 93.0159 20.7942 92.9631C20.7877 92.9546 20.7813 92.9467 20.7756 92.9382C20.7319 92.8747 20.6933 92.8085 20.6575 92.74C20.6547 92.7336 20.6504 92.7286 20.6475 92.7229L15.7286 82.9103ZM15.7286 82.9103C16.1808 83.8113 17.2814 84.1776 18.1859 83.7279M15.7286 82.9103C15.2763 82.0087 16.2333 84.5729 18.1859 83.7279M18.1859 83.7279C19.0067 83.6123 19.4589 82.1819 19.0067 81.2802M18.1859 83.7279C20.0749 82.9103 18.5544 80.3786 19.0067 81.2802M19.0067 81.2802L7.56162 58.4462C6.67716 56.4269 6.22849 54.2779 6.22849 52.0577C6.22849 43.2387 13.4323 36.0633 22.2869 36.0633C31.1408 36.0633 38.3446 43.2387 38.3446 52.0577C38.3446 54.2779 37.8966 56.4269 37.0122 58.4455L22.2869 87.8227L19.0067 81.2802ZM76.0186 14.788V3.95904H86.293L83.5537 8.42164C83.1952 9.0054 83.1952 9.74097 83.5537 10.3254L86.293 14.788H76.0186Z" stroke="#118BAE" stroke-width="1.5"/>
</g>
<defs>
<clipPath id="clip0">
<rect width="93.7928" height="93.423" fill="white" transform="translate(0 0.492859)"/>
</clipPath>
</defs>
</svg>
