<svg width="28" height="28" viewBox="0 0 28 28" fill="none" xmlns="http://www.w3.org/2000/svg">
<g opacity="0.8">
<path d="M24.6432 26.0405L20.1972 17.8002C20.5234 17.528 20.833 17.2338 21.1237 16.9184C22.9062 14.9844 23.829 12.472 23.7219 9.84404C23.6147 7.21593 22.4906 4.787 20.5566 3.00444L20.0125 2.50299L13.8405 9.19944L10.7313 6.33368C10.7971 5.90937 10.6575 5.4607 10.3187 5.14846C10.0721 4.92107 9.75158 4.79588 9.41626 4.79588C9.04523 4.79588 8.6882 4.95224 8.43684 5.22492C8.19563 5.48645 8.07074 5.8264 8.08524 6.18195C8.09964 6.53739 8.25176 6.86601 8.51329 7.10701C8.76002 7.33441 9.08054 7.4597 9.41596 7.4597C9.52182 7.4597 9.62609 7.44559 9.72761 7.42103L12.8376 10.2876L6.66553 16.984L7.2096 17.4855C9.03319 19.1663 11.4024 20.092 13.881 20.092C13.9116 20.092 13.9421 20.0911 13.9725 20.0908L10.7624 26.0406C10.5129 26.5032 10.5037 26.9929 10.7372 27.3843C10.9707 27.7757 11.4061 28.0001 11.9317 28.0001H23.4741C23.9997 28.0001 24.435 27.7757 24.6686 27.3843C24.902 26.9928 24.8928 26.5031 24.6432 26.0405ZM9.30715 6.02766C9.33467 5.99786 9.37522 5.98001 9.41577 5.98001C9.45256 5.98001 9.48916 5.99431 9.51619 6.01907C9.53208 6.03367 9.54392 6.05183 9.5521 6.07156C9.51689 6.09809 9.48325 6.12769 9.45227 6.16123C9.42178 6.19438 9.39554 6.2297 9.37216 6.2664C9.35135 6.26048 9.33171 6.2513 9.31573 6.2365C9.25575 6.18126 9.252 6.08754 9.30715 6.02766ZM8.77857 16.8749L20.0761 4.61761C21.3989 6.0683 22.1624 7.91942 22.2433 9.90431C22.3343 12.1374 21.5502 14.2723 20.0355 15.9156C18.4561 17.6293 16.2128 18.6122 13.8809 18.6122C12.0231 18.6122 10.2374 18 8.77857 16.8749ZM12.1849 26.5202L15.7508 19.9111C16.894 19.689 17.9893 19.2663 18.9827 18.6658L23.2205 26.5202H12.1849Z" fill="#118BAE"/>
<path d="M7.89257 1.47712C8.29971 1.442 8.60129 1.08359 8.56617 0.676453C8.53115 0.269313 8.17314 -0.0327616 7.76551 0.00285201C6.6088 0.102491 5.36913 0.729725 4.53049 1.6398C3.69954 2.54128 3.17549 3.81479 3.16277 4.96341C3.15823 5.37202 3.48585 5.70695 3.89447 5.71139C3.89724 5.71139 3.9 5.71139 3.90276 5.71139C4.30753 5.71139 4.63792 5.38544 4.64236 4.97968C4.65084 4.20595 5.04318 3.26688 5.61843 2.6427C6.1992 2.0127 7.11302 1.5443 7.89257 1.47712Z" fill="#118BAE"/>
<path d="M7.27025 4.15939C7.59846 3.80355 8.14253 3.50956 8.53586 3.47572C8.943 3.4407 9.24468 3.0823 9.20956 2.67516C9.17454 2.26812 8.81594 1.96555 8.409 2.00146C7.5374 2.07643 6.66265 2.6355 6.18231 3.15648C5.7066 3.67273 5.22222 4.58113 5.21245 5.44681C5.20781 5.85543 5.53534 6.19035 5.94396 6.19499C5.94682 6.19499 5.94958 6.19499 5.95244 6.19499C6.35712 6.19499 6.68751 5.86914 6.69214 5.46338C6.69638 5.07932 6.95042 4.50645 7.27025 4.15939Z" fill="#118BAE"/>
</g>
</svg>
