<svg width="28" height="28" viewBox="0 0 28 28" fill="none" xmlns="http://www.w3.org/2000/svg">
<g opacity="0.8">
<path d="M14.2076 4.17847C10.896 4.17847 8.20178 6.8726 8.20178 10.1841C8.20178 13.4957 10.896 16.1898 14.2076 16.1898C17.5191 16.1898 20.2134 13.4957 20.2134 10.1841C20.2134 6.8726 17.5191 4.17847 14.2076 4.17847ZM14.2076 14.5743C11.7868 14.5743 9.81717 12.6048 9.81717 10.184C9.81717 7.76322 11.7868 5.79385 14.2076 5.79385C16.6284 5.79385 18.598 7.76333 18.598 10.1841C18.598 12.605 16.6285 14.5743 14.2076 14.5743Z" fill="#118BAE"/>
<path d="M14.2076 0C8.59208 0 4.02356 4.56852 4.02356 10.184C4.02356 13.4226 6.73956 18.2475 8.3585 20.8352C9.42368 22.5377 10.5683 24.1581 11.5815 25.3976C13.2078 27.3871 13.7899 27.5536 14.2077 27.5536C14.6318 27.5536 15.1813 27.387 16.8025 25.3964C17.818 24.1495 18.9632 22.5301 20.0273 20.8365C21.6573 18.2424 24.3917 13.4089 24.3917 10.1839C24.3917 4.56852 19.8232 0 14.2076 0ZM18.9074 19.5788C16.8186 22.9693 14.9009 25.2603 14.198 25.8452C13.4914 25.2783 11.6049 23.0417 9.4869 19.5894C7.04153 15.6032 5.63905 12.175 5.63905 10.184C5.63894 5.45925 9.48281 1.61538 14.2076 1.61538C18.9324 1.61538 22.7762 5.45925 22.7762 10.184C22.7763 12.1636 21.3661 15.5878 18.9074 19.5788Z" fill="#118BAE"/>
</g>
</svg>
