<svg width="28" height="28" viewBox="0 0 28 28" fill="none" xmlns="http://www.w3.org/2000/svg">
<g opacity="0.8">
<g clip-path="url(#clip0)">
<path d="M20.2865 3.78617C20.2865 4.76842 19.8941 5.8328 19.2868 6.4978C19.0425 6.76536 19.0613 7.1803 19.3288 7.4246C19.4547 7.53953 19.613 7.59621 19.771 7.59621C19.949 7.59621 20.1262 7.52422 20.2556 7.38261C21.0839 6.47559 21.5985 5.09756 21.5985 3.78626C21.5985 2.48712 21.0932 1.11941 20.2797 0.216846C20.0372 -0.0522002 19.6224 -0.0737169 19.3532 0.16874C19.0841 0.411284 19.0626 0.826137 19.3051 1.09527C19.9013 1.7566 20.2865 2.81285 20.2865 3.78617Z" fill="#118BAE"/>
<path d="M17.3392 6.29923C17.465 6.41425 17.6236 6.47093 17.7815 6.47093C17.9593 6.47093 18.1365 6.39912 18.266 6.25742C18.8817 5.58367 19.1573 4.53311 19.1573 3.7907C19.1573 3.05519 18.8868 2.01268 18.2823 1.34181C18.0397 1.07259 17.6249 1.05099 17.3558 1.29362C17.0867 1.53616 17.0651 1.95093 17.3076 2.22006C17.6142 2.56031 17.8454 3.23555 17.8454 3.7907C17.8454 4.35065 17.6099 5.03062 17.2976 5.37235C17.0531 5.63991 17.0717 6.05485 17.3392 6.29923Z" fill="#118BAE"/>
<path d="M8.11522 7.5962C8.2717 7.5962 8.42879 7.54049 8.55422 7.42748C8.82335 7.18493 8.84487 6.77017 8.60232 6.50103C8.00615 5.83953 7.62095 4.7831 7.62095 3.80987C7.62095 2.8277 8.01333 1.76333 8.6206 1.09823C8.8649 0.83067 8.84609 0.415729 8.57862 0.171435C8.31106 -0.0728586 7.89612 -0.0540533 7.65183 0.213507C6.82352 1.12053 6.30896 2.49857 6.30896 3.80987C6.30896 5.10901 6.81425 6.47663 7.62777 7.37937C7.75731 7.52317 7.93592 7.5962 8.11522 7.5962Z" fill="#118BAE"/>
<path d="M9.62547 6.25428C9.755 6.39807 9.93361 6.47111 10.113 6.47111C10.2695 6.47111 10.4266 6.41548 10.5519 6.30247C10.821 6.05993 10.8426 5.64516 10.6001 5.37603C10.2935 5.03578 10.0624 4.36054 10.0624 3.80539C10.0624 3.24543 10.2979 2.56547 10.6102 2.22382C10.8546 1.95635 10.836 1.5415 10.5686 1.29703C10.3012 1.05274 9.88629 1.07128 9.64182 1.33866C9.02597 2.01242 8.75037 3.06306 8.75037 3.80548C8.75037 4.5409 9.0209 5.58341 9.62547 6.25428Z" fill="#118BAE"/>
<path d="M21.7832 27.1411L20.7292 23.898C20.7222 23.8706 20.7135 23.8437 20.7029 23.8172L14.92 6.02345C15.7398 5.66685 16.3146 4.84939 16.3146 3.89994C16.3146 2.62354 15.2762 1.58514 13.9999 1.58514C12.7235 1.58514 11.6851 2.62354 11.6851 3.89994C11.6851 4.84956 12.2602 5.6672 13.0802 6.02371L7.29759 23.8158C7.28631 23.8438 7.27712 23.8724 7.26977 23.9014L6.21685 27.141C6.1049 27.4855 6.29347 27.8557 6.63792 27.9676C6.98262 28.0796 7.35261 27.8911 7.46456 27.5465L8.47191 24.4471C9.83595 23.3503 11.8368 22.7229 13.9999 22.7229C16.1619 22.7229 18.1628 23.3502 19.528 24.4468L20.5354 27.5465C20.6255 27.8236 20.8826 27.9999 21.1591 27.9999C21.2263 27.9999 21.2946 27.9895 21.362 27.9676C21.7065 27.8557 21.8951 27.4856 21.7832 27.1411ZM16.6578 15.6154C15.8104 15.4049 14.9101 15.2953 14.0006 15.2953C13.0906 15.2953 12.1898 15.405 11.3423 15.6155L14.0001 7.43795L16.6578 15.6154ZM13.9999 2.89714C14.5528 2.89714 15.0026 3.34698 15.0026 3.89994C15.0026 4.4529 14.5528 4.90274 13.9999 4.90274C13.4469 4.90274 12.9971 4.4529 12.9971 3.89994C12.9971 3.34698 13.4469 2.89714 13.9999 2.89714ZM13.9999 21.411C12.2148 21.411 10.5138 21.7982 9.10465 22.5005L10.8485 17.1349C11.8115 16.7906 12.8951 16.6073 14.0006 16.6073C15.1055 16.6073 16.1887 16.7907 17.1516 17.1348L18.8955 22.5009C17.4858 21.7983 15.7846 21.411 13.9999 21.411Z" fill="#118BAE"/>
</g>
</g>
<defs>
<clipPath id="clip0">
<rect width="28" height="28" fill="white"/>
</clipPath>
</defs>
</svg>
