<svg width="28" height="28" viewBox="0 0 28 28" fill="none" xmlns="http://www.w3.org/2000/svg">
<g opacity="0.8">
<path d="M20.647 0H7.35289C5.92473 0 4.76294 1.16179 4.76294 2.58995V25.4101C4.76294 26.8382 5.92473 28 7.35289 28H20.647C22.0752 28 23.237 26.8382 23.237 25.4101V2.58995C23.237 1.16179 22.0752 0 20.647 0ZM7.35289 1.72663H20.647C21.1231 1.72663 21.5104 2.11397 21.5104 2.58995V20.5392H6.48957V2.58995C6.48957 2.11397 6.8768 1.72663 7.35289 1.72663ZM20.647 26.2734H7.35289C6.8768 26.2734 6.48957 25.886 6.48957 25.4101V22.2659H21.5104V25.4101C21.5104 25.886 21.1231 26.2734 20.647 26.2734Z" fill="#118BAE"/>
<path d="M14.9496 23.4264H13.0503C12.5735 23.4264 12.187 23.8129 12.187 24.2897C12.187 24.7665 12.5735 25.153 13.0503 25.153H14.9496C15.4264 25.153 15.8129 24.7665 15.8129 24.2897C15.8129 23.8129 15.4264 23.4264 14.9496 23.4264Z" fill="#118BAE"/>
<g clip-path="url(#clip0)">
<path d="M18.5995 13.3496L17.202 11.9515C17.0143 11.7647 16.763 11.6619 16.4945 11.6619C16.215 11.6619 15.9511 11.7719 15.7516 11.9715L15.2076 12.5154C14.7849 12.2805 14.223 11.9573 13.6397 11.374C13.0571 10.7911 12.7339 10.2309 12.4977 9.80595L13.0423 9.26183C13.4471 8.85616 13.4554 8.20532 13.0608 7.81108L11.6635 6.41381C11.4764 6.22613 11.2251 6.12277 10.9558 6.12277C10.6826 6.12277 10.4241 6.22797 10.2257 6.41945C10.1057 6.51609 9.50355 7.04769 9.27911 8.144C8.96487 9.67851 9.68687 11.1549 11.7712 13.2401C14.0995 15.5677 16.0872 15.7486 16.641 15.7486C16.7563 15.7486 16.8258 15.7415 16.8444 15.7394C17.9303 15.6121 18.3191 15.1298 18.6029 14.7777C18.9708 14.3214 18.9695 13.7209 18.5995 13.3496ZM18.1358 14.4011C17.869 14.7321 17.617 15.0446 16.7746 15.1434C16.7741 15.1434 16.7281 15.1486 16.641 15.1486C16.1456 15.1486 14.3607 14.9804 12.1955 12.8158C10.2733 10.8929 9.59871 9.57423 9.86691 8.26432C10.0627 7.30809 10.5824 6.90165 10.6026 6.88621L10.6205 6.87297L10.6362 6.85721C10.723 6.77053 10.8365 6.72277 10.9558 6.72277C11.0644 6.72277 11.1649 6.76349 11.239 6.83781L12.6365 8.2354C12.7973 8.39604 12.7888 8.66636 12.6177 8.8378L12.0019 9.45307L11.9918 9.46367C11.8313 9.64043 11.8502 9.87931 11.9386 10.0349C12.1937 10.4952 12.5431 11.1256 13.2154 11.7981C13.8854 12.4682 14.515 12.8173 14.974 13.0719C15.02 13.0977 15.1148 13.141 15.2336 13.141C15.3738 13.141 15.5026 13.0817 15.5979 12.9735L16.1758 12.3957C16.2621 12.3094 16.3752 12.2618 16.4944 12.2618C16.6033 12.2618 16.7043 12.3027 16.7782 12.3762L18.1748 13.7734C18.3522 13.9514 18.2789 14.2236 18.1358 14.4011Z" fill="#118BAE"/>
<path d="M15.0666 7.59247C15.5821 7.65179 16.1891 7.96403 16.6129 8.38791C17.0407 8.8157 17.3537 9.42882 17.4102 9.9499C17.4269 10.1036 17.5569 10.2175 17.7081 10.2175C17.7189 10.2175 17.7298 10.2169 17.7408 10.2158C17.9055 10.1979 18.0246 10.0499 18.0067 9.88518C17.9352 9.2265 17.5637 8.49023 17.0372 7.96367C16.5156 7.44203 15.7868 7.07143 15.1352 6.99644C14.9707 6.97736 14.8219 7.09559 14.8029 7.26015C14.7839 7.42471 14.902 7.57351 15.0666 7.59247Z" fill="#118BAE"/>
<path d="M14.7864 8.84921C15.0652 8.88133 15.451 9.08813 15.7038 9.34089C15.9587 9.59585 16.1659 9.98536 16.1964 10.2672C16.2131 10.4209 16.3431 10.5348 16.4943 10.5348C16.5051 10.5348 16.516 10.5342 16.527 10.5331C16.6917 10.5152 16.8108 10.3672 16.7929 10.2025C16.7407 9.72137 16.4213 9.20997 16.128 8.91661C15.8373 8.62585 15.3309 8.30797 14.855 8.25313C14.6902 8.23397 14.5416 8.35225 14.5226 8.51681C14.5037 8.68141 14.6218 8.83025 14.7864 8.84921Z" fill="#118BAE"/>
</g>
</g>
<defs>
<clipPath id="clip0">
<rect width="9.66914" height="9.66914" fill="white" transform="translate(9.20874 6.10077)"/>
</clipPath>
</defs>
</svg>
